<svg width="154" height="39" viewBox="0 0 154 39" fill="none" xmlns="http://www.w3.org/2000/svg">
<g clip-path="url(#clip0_196_15552)">
<path d="M25.4717 19.2738C26.7203 18.2282 27.5143 16.6577 27.5143 14.9017C27.5143 13.1458 26.7203 11.5753 25.4717 10.5297C25.6148 10.4604 25.7525 10.3852 25.8837 10.3037C26.7119 9.78873 27.6894 9.49133 28.7364 9.49133C31.7245 9.49133 34.1468 11.9137 34.1468 14.9017C34.1468 17.8898 31.7245 20.3121 28.7364 20.3121C27.6894 20.3121 26.7119 20.0147 25.8837 19.4998C25.7525 19.4183 25.6148 19.3431 25.4717 19.2738Z" fill="url(#paint0_linear_196_15552)"/>
<path d="M23.9693 15.7535C24.5278 14.2237 24.4302 12.4666 23.5522 10.9459C22.6742 9.42522 21.2013 8.46213 19.5972 8.18092C19.6865 8.04939 19.7681 7.9154 19.8409 7.77922C20.3007 6.91917 20.9986 6.17284 21.9053 5.64934C24.4931 4.1553 27.8021 5.04193 29.2961 7.62968C30.7901 10.2174 29.9035 13.5264 27.3157 15.0204C26.409 15.5439 25.4137 15.7751 24.439 15.7433C24.2847 15.7382 24.1278 15.742 23.9693 15.7535Z" fill="url(#paint1_linear_196_15552)"/>
<path d="M20.9076 13.4561C20.6264 11.852 19.6633 10.3791 18.1426 9.50114C16.6219 8.62316 14.8648 8.52556 13.335 9.08407C13.3466 8.92553 13.3503 8.76866 13.3452 8.61434C13.3134 7.63961 13.5446 6.64433 14.0681 5.73759C15.5622 3.14984 18.8711 2.26321 21.4589 3.75725C24.0466 5.25129 24.9333 8.56024 23.4392 11.148C22.9157 12.0547 22.1694 12.7526 21.3093 13.2124C21.1732 13.2852 21.0392 13.3668 20.9076 13.4561Z" fill="url(#paint2_linear_196_15552)"/>
<path d="M17.1072 12.9974C16.0616 11.7488 14.4911 10.9548 12.7351 10.9548C10.9791 10.9548 9.40865 11.7488 8.36306 12.9974C8.2938 12.8543 8.21858 12.7166 8.13705 12.5854C7.62211 11.7572 7.32471 10.7797 7.32471 9.73268C7.32471 6.74459 9.74703 4.32227 12.7351 4.32227C15.7232 4.32227 18.1455 6.74459 18.1455 9.73268C18.1455 10.7797 17.8481 11.7572 17.3332 12.5854C17.2516 12.7166 17.1764 12.8543 17.1072 12.9974Z" fill="url(#paint3_linear_196_15552)"/>
<path d="M13.5859 14.5002C12.0561 13.9417 10.2989 14.0393 8.77822 14.9172C7.25751 15.7952 6.29442 17.2681 6.01322 18.8722C5.88169 18.7829 5.74769 18.7013 5.61151 18.6285C4.75146 18.1687 4.00513 17.4708 3.48163 16.5641C1.98758 13.9763 2.87421 10.6674 5.46197 9.17334C8.04973 7.67929 11.3587 8.56592 12.8528 11.1537C13.3763 12.0604 13.6075 13.0557 13.5756 14.0304C13.5706 14.1847 13.5743 14.3416 13.5859 14.5002Z" fill="url(#paint4_linear_196_15552)"/>
<path d="M11.2875 17.5622C9.68335 17.8434 8.21046 18.8065 7.33248 20.3272C6.4545 21.8479 6.3569 23.605 6.91542 25.1348C6.75686 25.1232 6.59997 25.1195 6.44563 25.1245C5.47091 25.1564 4.47563 24.9252 3.5689 24.4017C0.981142 22.9076 0.0945109 19.5987 1.58855 17.0109C3.08259 14.4232 6.39154 13.5365 8.9793 15.0306C9.88603 15.5541 10.5839 16.3004 11.0437 17.1604C11.1165 17.2966 11.1982 17.4306 11.2875 17.5622Z" fill="url(#paint5_linear_196_15552)"/>
<path d="M10.8279 21.363C9.57934 22.4086 8.78531 23.9791 8.78531 25.735C8.78531 27.491 9.57934 29.0615 10.8279 30.1071C10.6849 30.1763 10.5471 30.2516 10.416 30.3331C9.58778 30.848 8.61024 31.1454 7.56323 31.1454C4.57515 31.1454 2.15283 28.7231 2.15283 25.735C2.15283 22.7469 4.57515 20.3246 7.56323 20.3246C8.61024 20.3246 9.58778 20.622 10.416 21.137C10.5471 21.2185 10.6849 21.2937 10.8279 21.363Z" fill="url(#paint6_linear_196_15552)"/>
<path d="M12.33 24.8842C11.7714 26.414 11.869 28.1711 12.747 29.6918C13.625 31.2126 15.0979 32.1756 16.702 32.4568C16.6127 32.5884 16.5311 32.7224 16.4583 32.8586C15.9985 33.7186 15.3006 34.4649 14.3939 34.9884C11.8061 36.4825 8.49715 35.5958 7.00311 33.0081C5.50906 30.4203 6.3957 27.1114 8.98345 25.6173C9.89019 25.0938 10.8855 24.8626 11.8602 24.8945C12.0145 24.8995 12.1714 24.8958 12.33 24.8842Z" fill="url(#paint7_linear_196_15552)"/>
<path d="M15.3921 27.1826C15.6733 28.7867 16.6364 30.2596 18.1571 31.1375C19.6778 32.0155 21.435 32.1131 22.9648 31.5546C22.9532 31.7132 22.9495 31.87 22.9545 32.0244C22.9864 32.9991 22.7552 33.9944 22.2317 34.9011C20.7376 37.4889 17.4287 38.3755 14.8409 36.8814C12.2531 35.3874 11.3665 32.0785 12.8606 29.4907C13.3841 28.584 14.1304 27.8861 14.9904 27.4263C15.1266 27.3535 15.2606 27.2718 15.3921 27.1826Z" fill="url(#paint8_linear_196_15552)"/>
<path d="M19.1931 27.6422C20.2387 28.8908 21.8092 29.6848 23.5652 29.6848C25.3212 29.6848 26.8917 28.8908 27.9373 27.6422C28.0065 27.7853 28.0817 27.923 28.1633 28.0541C28.6782 28.8823 28.9756 29.8599 28.9756 30.9069C28.9756 33.895 26.5533 36.3173 23.5652 36.3173C20.5771 36.3173 18.1548 33.895 18.1548 30.9069C18.1548 29.8599 18.4522 28.8823 18.9671 28.0541C19.0487 27.923 19.1239 27.7853 19.1931 27.6422Z" fill="url(#paint9_linear_196_15552)"/>
<path d="M22.7144 26.1399C24.2442 26.6984 26.0013 26.6008 27.522 25.7229C29.0427 24.8449 30.0058 23.372 30.287 21.7679C30.4185 21.8571 30.5525 21.9388 30.6887 22.0116C31.5488 22.4714 32.2951 23.1693 32.8186 24.076C34.3127 26.6638 33.426 29.9727 30.8383 31.4668C28.2505 32.9608 24.9416 32.0742 23.4475 29.4864C22.924 28.5797 22.6928 27.5844 22.7246 26.6097C22.7297 26.4554 22.726 26.2985 22.7144 26.1399Z" fill="url(#paint10_linear_196_15552)"/>
<path d="M28.9709 20.3072C28.9698 20.3091 28.9687 20.311 28.9676 20.3129C28.0897 21.8336 26.6168 22.7967 25.0127 23.0779C25.1019 23.2095 25.1836 23.3435 25.2564 23.4796C25.7162 24.3397 26.4141 25.086 27.3208 25.6095C29.9086 27.1036 33.2175 26.2169 34.7116 23.6292C35.9924 21.4106 35.5235 18.662 33.733 16.9814C32.9464 18.8691 31.1211 20.2156 28.9709 20.3072Z" fill="url(#paint11_linear_196_15552)"/>
<path d="M48.1232 10.0896V26.2486H44.542V10.0896H48.1232ZM45.1097 26.2486L45.1752 23.0823H54.4557V26.2486H45.1097ZM55.0162 20.7676C55.0162 19.6176 55.2564 18.6131 55.7368 17.7542C56.2172 16.8807 56.8941 16.2038 57.7676 15.7234C58.641 15.243 59.66 15.0028 60.8247 15.0028C61.9893 15.0028 63.001 15.243 63.8599 15.7234C64.7334 16.2038 65.4103 16.8807 65.8907 17.7542C66.3711 18.6131 66.6113 19.6176 66.6113 20.7676C66.6113 21.9177 66.3711 22.9222 65.8907 23.7811C65.4103 24.64 64.7334 25.3096 63.8599 25.79C63.001 26.2704 61.9893 26.5106 60.8247 26.5106C59.66 26.5106 58.641 26.2704 57.7676 25.79C56.8941 25.3096 56.2172 24.64 55.7368 23.7811C55.2564 22.9222 55.0162 21.9177 55.0162 20.7676ZM58.4008 20.7458C58.4008 21.299 58.5027 21.7867 58.7065 22.2089C58.9103 22.6165 59.1942 22.9367 59.5581 23.1697C59.9221 23.388 60.3443 23.4972 60.8247 23.4972C61.3051 23.4972 61.7272 23.388 62.0912 23.1697C62.4551 22.9367 62.7317 22.6165 62.921 22.2089C63.1248 21.7867 63.2267 21.299 63.2267 20.7458C63.2267 20.1926 63.1248 19.7122 62.921 19.3046C62.7317 18.897 62.4551 18.584 62.0912 18.3656C61.7272 18.1327 61.3051 18.0162 60.8247 18.0162C60.3443 18.0162 59.9221 18.1327 59.5581 18.3656C59.1942 18.584 58.9103 18.897 58.7065 19.3046C58.5027 19.7122 58.4008 20.1926 58.4008 20.7458ZM67.3707 20.593C67.3707 19.472 67.5963 18.4894 68.0476 17.645C68.4989 16.8007 69.1176 16.1456 69.9037 15.6797C70.6898 15.1993 71.5924 14.9591 72.6114 14.9591C73.4703 14.9591 74.2273 15.1338 74.8824 15.4832C75.5521 15.8326 76.0033 16.2912 76.2363 16.8589L75.9087 17.0773L76.1708 15.3304H79.206V25.5498C79.206 26.8309 78.9585 27.9373 78.4636 28.869C77.9686 29.8152 77.2626 30.5431 76.3454 31.0526C75.4429 31.5621 74.3656 31.8169 73.1136 31.8169C72.0655 31.8169 71.1193 31.6058 70.2749 31.1836C69.4451 30.776 68.7682 30.1937 68.2441 29.4367C67.7346 28.6797 67.4289 27.8063 67.327 26.8163H70.7335C70.7626 27.4423 71.0101 27.9227 71.4759 28.2576C71.9563 28.5924 72.5677 28.7598 73.3102 28.7598C74.14 28.7598 74.7805 28.5269 75.2318 28.061C75.6831 27.6097 75.9087 27.0056 75.9087 26.2486V23.9339L76.2144 24.2178C75.9815 24.7856 75.5302 25.2441 74.8606 25.5935C74.1909 25.9429 73.4194 26.1176 72.5459 26.1176C71.5414 26.1176 70.6461 25.8847 69.86 25.4188C69.0885 24.953 68.477 24.3052 68.0257 23.4754C67.589 22.6456 67.3707 21.6848 67.3707 20.593ZM70.7771 20.5056C70.7771 21.0297 70.8863 21.4955 71.1047 21.9031C71.3231 22.3108 71.6142 22.631 71.9782 22.8639C72.3421 23.0823 72.7424 23.1915 73.1792 23.1915C73.7032 23.1915 74.1618 23.0823 74.5549 22.8639C74.9625 22.631 75.2755 22.3108 75.4938 21.9031C75.7267 21.4955 75.8432 21.0297 75.8432 20.5056C75.8432 19.967 75.7267 19.5084 75.4938 19.1299C75.2609 18.7369 74.9406 18.4311 74.533 18.2128C74.14 17.9944 73.6814 17.8852 73.1573 17.8852C72.7206 17.8852 72.3203 17.9944 71.9563 18.2128C71.5924 18.4311 71.3012 18.7369 71.0829 19.1299C70.879 19.523 70.7771 19.9815 70.7771 20.5056ZM80.4045 20.7676C80.4045 19.6176 80.6447 18.6131 81.1251 17.7542C81.6055 16.8807 82.2824 16.2038 83.1559 15.7234C84.0293 15.243 85.0484 15.0028 86.213 15.0028C87.3776 15.0028 88.3893 15.243 89.2483 15.7234C90.1217 16.2038 90.7986 16.8807 91.279 17.7542C91.7594 18.6131 91.9996 19.6176 91.9996 20.7676C91.9996 21.9177 91.7594 22.9222 91.279 23.7811C90.7986 24.64 90.1217 25.3096 89.2483 25.79C88.3893 26.2704 87.3776 26.5106 86.213 26.5106C85.0484 26.5106 84.0293 26.2704 83.1559 25.79C82.2824 25.3096 81.6055 24.64 81.1251 23.7811C80.6447 22.9222 80.4045 21.9177 80.4045 20.7676ZM83.7891 20.7458C83.7891 21.299 83.891 21.7867 84.0948 22.2089C84.2986 22.6165 84.5825 22.9367 84.9465 23.1697C85.3104 23.388 85.7326 23.4972 86.213 23.4972C86.6934 23.4972 87.1156 23.388 87.4795 23.1697C87.8434 22.9367 88.12 22.6165 88.3093 22.2089C88.5131 21.7867 88.615 21.299 88.615 20.7458C88.615 20.1926 88.5131 19.7122 88.3093 19.3046C88.12 18.897 87.8434 18.584 87.4795 18.3656C87.1156 18.1327 86.6934 18.0162 86.213 18.0162C85.7326 18.0162 85.3104 18.1327 84.9465 18.3656C84.5825 18.584 84.2986 18.897 84.0948 19.3046C83.891 19.7122 83.7891 20.1926 83.7891 20.7458ZM93.4141 26.2486V15.3304H96.7987V26.2486H93.4141ZM95.1173 13.6271C94.5787 13.6271 94.1201 13.4451 93.7416 13.0812C93.3777 12.7027 93.1957 12.2441 93.1957 11.7055C93.1957 11.1669 93.3777 10.7156 93.7416 10.3516C94.1201 9.98769 94.5787 9.80573 95.1173 9.80573C95.6414 9.80573 96.0854 9.98769 96.4493 10.3516C96.8278 10.7156 97.0171 11.1669 97.0171 11.7055C97.0171 12.2441 96.8278 12.7027 96.4493 13.0812C96.0854 13.4451 95.6414 13.6271 95.1173 13.6271ZM98.9873 31.4894V15.3304H102.067L102.241 16.6624C102.547 16.1529 103.035 15.7453 103.704 15.4395C104.374 15.1338 105.095 14.981 105.866 14.981C106.885 14.981 107.773 15.2066 108.53 15.6579C109.287 16.1092 109.884 16.757 110.321 17.6014C110.757 18.4311 110.99 19.4356 111.02 20.6148C111.049 21.7648 110.859 22.7912 110.452 23.6937C110.044 24.5817 109.455 25.2805 108.683 25.79C107.911 26.2996 106.98 26.5543 105.888 26.5543C105.131 26.5543 104.425 26.4233 103.77 26.1613C103.115 25.8992 102.627 25.5644 102.307 25.1568V31.4894H98.9873ZM102.372 20.7895C102.372 21.3281 102.481 21.8085 102.7 22.2307C102.933 22.6383 103.246 22.9586 103.639 23.1915C104.046 23.4099 104.512 23.519 105.036 23.519C105.575 23.519 106.034 23.4026 106.412 23.1697C106.805 22.9367 107.104 22.6165 107.307 22.2089C107.526 21.8012 107.635 21.3281 107.635 20.7895C107.635 20.2508 107.526 19.7777 107.307 19.3701C107.104 18.9625 106.805 18.6422 106.412 18.4093C106.034 18.1764 105.575 18.0599 105.036 18.0599C104.512 18.0599 104.046 18.1764 103.639 18.4093C103.246 18.6277 102.933 18.9407 102.7 19.3483C102.481 19.7559 102.372 20.2363 102.372 20.7895ZM111.596 22.7984H114.632C114.632 23.1769 114.755 23.4754 115.003 23.6937C115.265 23.9121 115.643 24.0213 116.138 24.0213C116.429 24.0213 116.67 23.9849 116.859 23.9121C117.063 23.8393 117.216 23.7374 117.317 23.6064C117.434 23.4608 117.492 23.3007 117.492 23.126C117.492 22.9367 117.427 22.7766 117.296 22.6456C117.179 22.5146 116.975 22.4127 116.684 22.3399L114.763 21.8376C113.685 21.5465 112.921 21.117 112.47 20.5493C112.018 19.9815 111.793 19.3337 111.793 18.6058C111.793 17.8779 111.975 17.2447 112.339 16.7061C112.717 16.1529 113.227 15.7307 113.867 15.4395C114.508 15.1338 115.228 14.981 116.029 14.981C117.237 14.981 118.227 15.3158 118.999 15.9855C119.785 16.6405 120.2 17.5358 120.244 18.6713H117.208C117.223 18.2928 117.114 17.9944 116.881 17.776C116.648 17.5431 116.342 17.4267 115.964 17.4267C115.629 17.4267 115.352 17.514 115.134 17.6887C114.93 17.8488 114.828 18.0745 114.828 18.3656C114.828 18.6422 114.93 18.846 115.134 18.9771C115.338 19.0935 115.614 19.1954 115.964 19.2828L117.907 19.7632C118.81 19.9815 119.494 20.3528 119.96 20.8768C120.426 21.4009 120.658 22.0706 120.658 22.8858C120.658 24.0067 120.244 24.8947 119.414 25.5498C118.584 26.2049 117.507 26.5325 116.182 26.5325C114.814 26.5325 113.714 26.1904 112.885 25.5062C112.069 24.8074 111.64 23.9048 111.596 22.7984ZM126.024 26.5325C124.743 26.5325 123.753 26.1321 123.054 25.3315C122.356 24.5308 122.006 23.4826 122.006 22.187V15.3304H125.369V20.9642C125.369 21.9832 125.551 22.6674 125.915 23.0168C126.279 23.3662 126.759 23.5409 127.356 23.5409C128.128 23.5409 128.659 23.3225 128.95 22.8858C129.241 22.4491 129.387 21.8231 129.387 21.0078V15.3304H132.75V26.2486H129.584L129.365 25.0258C129.03 25.477 128.557 25.841 127.946 26.1176C127.334 26.3942 126.694 26.5325 126.024 26.5325ZM138.301 26.2486H134.916V15.3304H138.061L138.301 17.2083L137.93 16.8152C138.221 16.262 138.658 15.818 139.24 15.4832C139.837 15.1338 140.477 14.9591 141.162 14.9591C142.239 14.9591 143.083 15.1993 143.695 15.6797C144.321 16.1601 144.772 16.7934 145.048 17.5795H144.524C144.699 16.7934 145.121 16.1601 145.791 15.6797C146.461 15.1993 147.261 14.9591 148.193 14.9591C149.605 14.9591 150.646 15.3376 151.316 16.0946C151.985 16.8516 152.32 17.8561 152.32 19.1081V26.2486H149.045V19.9379C149.045 19.2536 148.877 18.7441 148.542 18.4093C148.222 18.0745 147.793 17.9071 147.254 17.9071C146.934 17.9071 146.628 17.9799 146.337 18.1254C146.046 18.2564 145.805 18.4966 145.616 18.846C145.427 19.1809 145.332 19.6613 145.332 20.2872V26.2486H142.013V19.9379C142.013 19.2536 141.853 18.7514 141.533 18.4311C141.212 18.0963 140.783 17.9289 140.244 17.9289C139.924 17.9289 139.611 18.0017 139.305 18.1473C139.014 18.2783 138.774 18.5185 138.585 18.8679C138.396 19.2027 138.301 19.6758 138.301 20.2872V26.2486Z" fill="#1B3D5B"/>
</g>
<defs>
<linearGradient id="paint0_linear_196_15552" x1="26.1491" y1="9.49133" x2="26.1491" y2="20.3121" gradientUnits="userSpaceOnUse">
<stop stop-color="#25136D"/>
<stop offset="1" stop-color="#3D9BA2"/>
</linearGradient>
<linearGradient id="paint1_linear_196_15552" x1="19.6647" y1="6.94297" x2="25.0751" y2="16.3141" gradientUnits="userSpaceOnUse">
<stop stop-color="#25136D"/>
<stop offset="1" stop-color="#3D9BA2"/>
</linearGradient>
<linearGradient id="paint2_linear_196_15552" x1="12.7745" y1="7.97824" x2="22.1456" y2="13.3886" gradientUnits="userSpaceOnUse">
<stop stop-color="#25136D"/>
<stop offset="1" stop-color="#3D9BA2"/>
</linearGradient>
<linearGradient id="paint3_linear_196_15552" x1="7.32471" y1="12.3199" x2="18.1455" y2="12.3199" gradientUnits="userSpaceOnUse">
<stop stop-color="#25136D"/>
<stop offset="1" stop-color="#3D9BA2"/>
</linearGradient>
<linearGradient id="paint4_linear_196_15552" x1="4.77527" y1="18.8047" x2="14.1464" y2="13.3943" gradientUnits="userSpaceOnUse">
<stop stop-color="#25136D"/>
<stop offset="1" stop-color="#3D9BA2"/>
</linearGradient>
<linearGradient id="paint5_linear_196_15552" x1="5.80956" y1="25.6953" x2="11.22" y2="16.3242" gradientUnits="userSpaceOnUse">
<stop stop-color="#25136D"/>
<stop offset="1" stop-color="#3D9BA2"/>
</linearGradient>
<linearGradient id="paint6_linear_196_15552" x1="10.1505" y1="31.1454" x2="10.1505" y2="20.3246" gradientUnits="userSpaceOnUse">
<stop stop-color="#25136D"/>
<stop offset="1" stop-color="#3D9BA2"/>
</linearGradient>
<linearGradient id="paint7_linear_196_15552" x1="16.6345" y1="33.6948" x2="11.2241" y2="24.3237" gradientUnits="userSpaceOnUse">
<stop stop-color="#25136D"/>
<stop offset="1" stop-color="#3D9BA2"/>
</linearGradient>
<linearGradient id="paint8_linear_196_15552" x1="23.5253" y1="32.6605" x2="14.1542" y2="27.25" gradientUnits="userSpaceOnUse">
<stop stop-color="#25136D"/>
<stop offset="1" stop-color="#3D9BA2"/>
</linearGradient>
<linearGradient id="paint9_linear_196_15552" x1="28.9756" y1="28.3196" x2="18.1548" y2="28.3196" gradientUnits="userSpaceOnUse">
<stop stop-color="#25136D"/>
<stop offset="1" stop-color="#3D9BA2"/>
</linearGradient>
<linearGradient id="paint10_linear_196_15552" x1="31.525" y1="21.8354" x2="22.1539" y2="27.2458" gradientUnits="userSpaceOnUse">
<stop stop-color="#25136D"/>
<stop offset="1" stop-color="#3D9BA2"/>
</linearGradient>
<linearGradient id="paint11_linear_196_15552" x1="30.4906" y1="14.9448" x2="25.0802" y2="24.3159" gradientUnits="userSpaceOnUse">
<stop stop-color="#25136D"/>
<stop offset="1" stop-color="#3D9BA2"/>
</linearGradient>
<clipPath id="clip0_196_15552">
<rect width="153" height="38" fill="white" transform="translate(0.862793 0.248596)"/>
</clipPath>
</defs>
</svg>
