<svg width="600" height="360" viewBox="0 0 200 120" fill="none" xmlns="http://www.w3.org/2000/svg">
  <defs>
    <style>
      .hines-text { font-family: 'Times New Roman', serif; font-size: 14px; font-weight: 400; letter-spacing: 2px; fill: #1F2937; }
    </style>
  </defs>
  
  <!-- Lighthouse Emblem Circle -->
  <circle cx="100" cy="30" r="25" fill="#FFFFFF" stroke="#1F2937" stroke-width="2"/>
  
  <!-- Lighthouse Structure -->
  <g transform="translate(100, 30)">
    <!-- Lighthouse Base -->
    <rect x="-8" y="8" width="16" height="12" fill="#1F2937"/>
    
    <!-- Lighthouse Tower -->
    <path d="M-6 8 L-4 -12 L4 -12 L6 8 Z" fill="#1F2937"/>
    
    <!-- Lighthouse Stripes -->
    <rect x="-4" y="-8" width="8" height="2" fill="#FFFFFF"/>
    <rect x="-4" y="-4" width="8" height="2" fill="#FFFFFF"/>
    <rect x="-4" y="0" width="8" height="2" fill="#FFFFFF"/>
    
    <!-- Lighthouse Top -->
    <rect x="-5" y="-14" width="10" height="3" fill="#1F2937"/>
    <polygon points="-3,-14 0,-18 3,-14" fill="#1F2937"/>
    
    <!-- Light Rays -->
    <g stroke="#1F2937" stroke-width="1" fill="none">
      <line x1="-12" y1="-10" x2="-18" y2="-15"/>
      <line x1="-10" y1="-15" x2="-14" y2="-20"/>
      <line x1="0" y1="-18" x2="0" y2="-24"/>
      <line x1="10" y1="-15" x2="14" y2="-20"/>
      <line x1="12" y1="-10" x2="18" y2="-15"/>
    </g>
    
    <!-- Water Waves -->
    <g transform="translate(0, 15)" stroke="#1F2937" stroke-width="1" fill="none">
      <path d="M-20 0 Q-15 -2 -10 0 Q-5 2 0 0 Q5 -2 10 0 Q15 2 20 0"/>
      <path d="M-20 3 Q-15 1 -10 3 Q-5 5 0 3 Q5 1 10 3 Q15 5 20 3"/>
    </g>
  </g>
  
  <!-- HINES Text -->
  <text x="100" y="85" text-anchor="middle" class="hines-text">H I N E S</text>
</svg>
